<?xml version="1.0" standalone="no"?>
<!DOCTYPE svg PUBLIC "-//W3C//DTD SVG 20010904//EN"
 "http://www.w3.org/TR/2001/REC-SVG-20010904/DTD/svg10.dtd">
<svg version="1.0" xmlns="http://www.w3.org/2000/svg"
 width="740.000000pt" height="740.000000pt" viewBox="0 0 740.000000 740.000000"
 preserveAspectRatio="xMidYMid meet">

<g transform="translate(0.000000,740.000000) scale(0.100000,-0.100000)"
fill="#000000" stroke="none">
<path d="M4837 5346 c-37 -14 -131 -56 -209 -95 -77 -39 -149 -71 -160 -71
-10 0 -29 -11 -41 -23 -29 -31 -114 -80 -126 -73 -15 10 -59 -11 -65 -31 -8
-24 -87 -63 -126 -63 -28 0 -60 -22 -60 -41 0 -16 -96 -58 -119 -52 -23 6 -61
-20 -61 -42 0 -17 -89 -57 -111 -50 -24 8 -69 -19 -69 -40 0 -21 -78 -58 -125
-59 -32 -1 -42 -6 -50 -24 -11 -26 -100 -77 -116 -66 -19 11 -55 -5 -67 -30
-15 -33 -86 -70 -119 -61 -19 4 -31 -1 -56 -28 -41 -44 -86 -67 -131 -67 -26
0 -39 -6 -48 -21 -15 -25 -120 -78 -358 -184 -310 -138 -445 -175 -1163 -324
-185 -39 -353 -78 -373 -87 -71 -34 -114 -121 -119 -244 -2 -52 -10 -90 -26
-125 -20 -43 -23 -66 -24 -170 0 -128 11 -181 47 -235 39 -56 66 -68 223 -99
255 -51 569 -84 1070 -113 298 -18 1953 -18 2390 0 753 30 1430 73 1620 102
51 8 65 15 97 49 56 59 73 127 73 291 0 150 -16 226 -60 278 l-25 30 11 208
c15 273 6 773 -16 966 l-17 147 45 52 c110 125 151 299 83 345 -49 31 -115
-14 -175 -120 l-32 -56 -29 15 c-64 33 -82 24 -209 -99 -141 -136 -214 -191
-331 -250 -219 -109 -435 -101 -656 25 -41 23 -74 45 -74 49 0 4 24 17 52 31
72 33 133 95 141 143 13 83 -34 226 -97 292 -39 40 -47 44 -92 44 -27 0 -80
-11 -117 -24z m166 -76 c60 -71 90 -218 54 -258 -20 -22 -147 -92 -167 -92
-27 0 -240 229 -240 258 0 5 6 12 13 15 280 124 298 128 340 77z m1452 0 c25
-28 16 -121 -20 -191 -33 -66 -96 -150 -109 -146 -5 2 -15 26 -22 55 -8 29
-21 66 -29 83 -15 28 -15 32 12 82 35 65 103 137 130 137 11 0 28 -9 38 -20z
m-1896 -225 c60 -95 71 -118 61 -130 -26 -31 -45 -14 -119 100 -61 95 -71 118
-61 130 26 31 45 14 119 -100z m62 38 c23 -32 81 -97 127 -145 l85 -88 -54
-24 c-30 -13 -180 -77 -334 -141 -300 -126 -817 -344 -1083 -456 -89 -38 -164
-69 -166 -69 -2 0 -2 8 1 19 3 12 -16 50 -50 104 l-55 85 39 17 c48 22 52 19
114 -81 40 -64 50 -74 75 -74 31 0 60 22 60 46 0 8 -22 50 -50 93 -27 43 -50
81 -50 84 0 4 18 16 40 27 l39 20 58 -87 c62 -94 88 -110 124 -77 28 26 24 44
-31 128 -27 42 -50 79 -50 81 0 11 83 46 89 38 3 -6 28 -44 54 -86 52 -83 75
-97 112 -73 34 22 31 52 -8 111 -76 113 -73 100 -32 125 19 12 39 20 45 18 5
-2 33 -39 62 -83 43 -65 58 -81 81 -83 35 -4 57 13 57 45 0 13 -22 57 -50 98
-27 41 -50 76 -50 79 0 7 81 49 85 44 1 -2 28 -42 59 -90 45 -71 61 -88 80
-88 31 0 56 24 56 53 0 12 -15 45 -33 72 -76 113 -72 100 -32 124 20 11 39 21
43 21 4 0 32 -38 62 -85 30 -47 63 -88 73 -91 27 -9 53 4 66 32 11 24 7 33
-31 93 -23 36 -49 74 -57 84 -13 16 -13 19 -1 28 28 19 72 40 75 37 1 -2 27
-42 57 -89 31 -47 64 -89 74 -93 20 -8 67 22 72 46 1 8 -20 50 -49 93 -28 43
-53 84 -55 90 -4 10 55 45 75 45 5 0 28 -30 51 -67 54 -86 78 -113 103 -113
25 0 57 28 57 49 0 9 -25 54 -55 101 -50 77 -53 86 -38 98 9 6 18 12 19 12 1
0 21 -26 45 -57z m1578 -30 c12 -14 28 -49 36 -77 18 -63 45 -236 45 -293 0
-39 -3 -44 -43 -68 -107 -62 -257 -89 -370 -66 -62 13 -174 67 -220 105 l-29
23 94 46 c115 57 235 147 353 266 49 50 95 91 102 91 6 0 21 -12 32 -27z
m-1823 -99 c60 -93 73 -119 63 -130 -26 -31 -47 -14 -118 96 -39 61 -71 114
-71 118 0 13 23 32 37 32 8 0 47 -52 89 -116z m-179 -97 c71 -110 72 -112 53
-131 -16 -16 -22 -17 -34 -7 -20 17 -146 214 -146 229 0 14 30 31 44 26 6 -2
43 -55 83 -117z m-187 -84 c72 -110 82 -146 44 -151 -17 -2 -35 18 -93 108
-82 128 -88 150 -39 150 12 0 41 -35 88 -107z m917 12 c86 -59 190 -108 278
-130 89 -23 248 -24 329 -2 l59 16 36 -29 c56 -45 163 -97 226 -110 l57 -12
-37 -25 c-103 -70 -257 -118 -409 -129 -261 -18 -579 88 -848 283 l-72 52 35
15 c19 8 86 37 149 65 63 27 119 50 123 50 4 1 38 -19 74 -44z m-1098 -106
c40 -62 71 -119 69 -128 -2 -9 -13 -17 -25 -19 -19 -3 -35 15 -93 103 -38 59
-70 112 -70 119 0 15 20 36 36 36 6 0 44 -50 83 -111z m-236 -11 c13 -18 48
-71 77 -117 42 -65 51 -87 43 -100 -23 -36 -40 -22 -112 88 -74 115 -79 129
-59 149 18 18 25 15 51 -20z m941 -54 c33 -90 80 -169 231 -384 197 -281 275
-436 275 -546 l0 -44 -72 0 c-84 0 -404 -20 -898 -55 -795 -57 -1061 -71
-1538 -86 -474 -15 -996 1 -1379 42 l-113 12 0 31 c0 17 3 41 6 52 l6 21 746
-5 c790 -5 938 0 1096 39 190 46 271 146 283 346 l6 91 101 42 c134 55 1006
422 1121 471 50 21 94 37 99 36 5 -2 18 -30 30 -63z m302 -127 c212 -107 368
-148 574 -148 99 0 145 5 220 25 111 28 212 71 281 121 35 25 60 35 87 35 54
0 147 26 217 60 39 19 62 25 66 18 11 -18 22 -457 15 -620 -14 -329 -17 -370
-32 -364 -8 3 -97 13 -197 23 -138 13 -281 17 -588 16 l-405 0 -12 66 c-23
136 -93 268 -281 531 -113 159 -199 303 -225 377 l-15 42 93 -63 c52 -35 143
-88 202 -119z m-1366 1 c54 -85 70 -116 62 -128 -23 -37 -42 -22 -118 95 -61
94 -73 119 -63 131 26 31 46 14 119 -98z m-237 -10 c13 -18 48 -70 77 -116 43
-68 50 -85 40 -97 -20 -25 -44 -17 -69 23 -115 175 -124 192 -111 207 19 23
37 18 63 -17z m-123 -181 c38 -60 70 -112 70 -117 0 -9 -32 -30 -45 -30 -6 0
-155 225 -155 234 0 14 33 35 46 28 7 -4 45 -56 84 -115z m-51 -78 l60 -91
-37 -16 c-20 -9 -73 -18 -117 -20 -94 -4 -174 20 -219 67 l-28 29 74 33 c40
19 98 46 128 61 30 14 60 27 67 27 7 1 39 -40 72 -90z m-325 -83 c68 -52 128
-71 221 -70 63 0 94 6 143 26 l64 26 -7 -81 c-14 -155 -64 -240 -172 -289
-158 -71 -364 -83 -1263 -72 l-665 9 35 36 c39 39 -10 26 646 163 439 92 610
141 824 234 63 28 118 51 122 51 4 1 28 -14 52 -33z m3415 -580 c111 -13 139
-20 158 -38 13 -12 21 -23 20 -25 -2 -2 -51 4 -108 12 -203 28 -462 38 -849
32 -392 -6 -553 -15 -1370 -72 -1399 -98 -2054 -110 -2735 -50 -253 22 -276
28 -222 52 15 6 62 6 147 -3 644 -65 1391 -56 2640 31 1156 81 1207 84 1740
80 335 -2 478 -7 579 -19z m-155 -47 c181 -13 323 -34 341 -49 24 -20 38 -117
32 -225 -6 -119 -19 -166 -55 -205 -26 -29 -32 -30 -177 -45 -299 -29 -808
-59 -1495 -87 -428 -18 -2096 -18 -2390 0 -678 40 -1152 104 -1217 164 -35 33
-57 133 -50 235 7 126 7 127 81 119 794 -81 1435 -74 2896 29 430 30 891 59
1080 68 176 8 831 6 954 -4z"/>
<path d="M1202 2761 c-95 -25 -162 -118 -162 -225 0 -111 41 -157 176 -197 42
-12 87 -31 100 -41 33 -27 32 -70 -2 -97 -48 -38 -132 -25 -203 31 l-24 19
-39 -68 c-20 -37 -38 -71 -38 -75 0 -4 30 -22 67 -40 64 -31 74 -33 173 -33
95 0 110 3 157 28 65 34 100 84 115 164 24 128 -27 200 -176 249 -81 27 -126
55 -126 81 0 8 11 25 25 38 31 32 77 32 137 2 l46 -23 31 63 c17 35 31 67 31
72 0 5 -26 19 -57 31 -63 24 -179 34 -231 21z"/>
<path d="M6058 2756 c-75 -27 -123 -76 -147 -145 -26 -79 -1 -191 52 -225 13
-9 63 -30 112 -46 49 -16 97 -37 107 -46 25 -23 23 -69 -4 -94 -35 -33 -123
-24 -183 18 l-45 31 -14 -22 c-8 -12 -25 -44 -38 -70 l-23 -48 25 -20 c68 -52
227 -74 329 -43 131 39 200 196 140 320 -24 51 -61 76 -160 109 -91 31 -119
49 -119 78 1 63 76 85 157 46 24 -12 46 -20 47 -18 11 12 67 132 63 135 -2 3
-31 14 -63 25 -76 27 -187 34 -236 15z"/>
<path d="M1680 2400 l0 -350 88 0 87 0 -3 210 c-2 119 1 210 6 210 5 0 83 -94
173 -210 l163 -210 93 0 93 0 0 350 0 350 -90 0 -90 0 -2 -215 -3 -215 -168
215 -168 215 -90 0 -89 0 0 -350z"/>
<path d="M2560 2400 l0 -350 200 0 200 0 0 75 0 75 -110 0 -110 0 0 65 0 65
105 0 105 0 0 75 0 75 -105 0 -105 0 0 60 0 60 110 0 110 0 0 75 0 75 -200 0
-200 0 0 -350z"/>
<path d="M3266 2633 c-160 -415 -203 -528 -202 -530 1 -2 48 18 104 42 99 44
154 55 167 35 3 -5 23 -10 44 -10 38 0 38 0 49 53 6 28 14 60 17 70 6 15 0 17
-53 17 l-60 0 36 110 c20 61 39 110 42 110 3 0 21 -47 40 -105 31 -96 36 -105
58 -105 25 0 25 0 19 -75 -4 -41 -3 -75 2 -75 5 0 19 -28 31 -61 l23 -62 27
32 c22 28 31 32 65 29 35 -3 40 -6 43 -30 3 -22 9 -28 28 -28 13 0 24 3 24 8
0 4 -58 160 -129 347 l-128 340 -101 3 -100 3 -46 -118z"/>
<path d="M3890 2453 c1 -223 3 -293 12 -278 6 11 22 32 36 47 20 22 28 25 39
16 11 -9 16 -9 22 1 4 6 21 15 37 20 25 6 30 13 34 51 l5 44 70 -92 c73 -96
77 -97 90 -27 4 22 11 48 16 57 13 25 59 24 66 -2 5 -19 23 -19 23 0 0 5 -22
36 -49 68 l-50 60 139 166 139 166 -112 0 -112 0 -105 -140 c-58 -76 -108
-139 -112 -140 -5 0 -8 63 -8 140 l0 140 -90 0 -90 0 0 -297z"/>
<path d="M4660 2400 l0 -350 200 0 200 0 0 75 0 75 -110 0 -110 0 0 65 0 65
105 0 105 0 0 75 0 75 -105 0 -105 0 0 60 0 60 110 0 110 0 0 75 0 75 -200 0
-200 0 0 -350z"/>
<path d="M5210 2400 l0 -350 90 0 89 0 3 133 3 132 85 -132 85 -133 113 0 113
0 -108 141 c-85 112 -104 142 -93 150 8 5 21 9 28 9 6 0 30 18 51 39 100 100
66 283 -64 342 -34 16 -67 19 -217 19 l-178 0 0 -350z m261 210 c61 -17 84
-72 54 -129 -16 -32 -24 -37 -89 -46 l-46 -7 0 89 c0 49 3 93 7 96 9 10 32 9
74 -3z"/>
<path d="M4356 2152 c-14 -42 -26 -83 -26 -90 0 -8 21 -12 69 -12 73 0 81 5
81 54 0 22 -75 126 -91 126 -4 0 -19 -35 -33 -78z"/>
<path d="M4043 2204 c-17 -7 -50 -62 -68 -113 l-14 -41 54 0 55 0 0 80 c0 78
-2 84 -27 74z"/>
<path d="M3200 2065 l-25 -14 33 -1 c22 0 32 5 32 15 0 18 -8 18 -40 0z"/>
</g>
</svg>
